<svg width="323" height="95" viewBox="0 0 323 95" fill="none" xmlns="http://www.w3.org/2000/svg">
<path d="M82.8369 25.4541V69.5449L46 91.5068L9.16309 69.5449V25.4541L46 3.49219L82.8369 25.4541Z" stroke="#002243" stroke-width="6"/>
<path d="M21 65.9641L15 62.5V61.5L36 21H44V68.5H37V57.5H25.8867L21 65.9641Z" fill="#002243" stroke="#002243" stroke-width="0.5"/>
<path d="M29 50L37 35.5V50H29Z" fill="white" stroke="black" stroke-width="0.1"/>
<path d="M71 65.9641L77 62.5V61.5L56 21H48V68.5H55V57.5H66.1133L71 65.9641Z" fill="#002243" stroke="#002243" stroke-width="0.5"/>
<path d="M63 50L55 35.5V50H63Z" fill="white" stroke="black" stroke-width="0.1"/>
<line x1="102.6" y1="14.5" x2="102.6" y2="80.5" stroke="#525252" stroke-width="1.2"/>
<path d="M119.692 31V18.4H124.75C125.662 18.4 126.484 18.55 127.216 18.85C127.96 19.15 128.596 19.582 129.124 20.146C129.664 20.71 130.072 21.376 130.348 22.144C130.636 22.912 130.78 23.764 130.78 24.7C130.78 25.636 130.636 26.494 130.348 27.274C130.072 28.042 129.67 28.708 129.142 29.272C128.614 29.824 127.978 30.25 127.234 30.55C126.49 30.85 125.662 31 124.75 31H119.692ZM122.032 29.182L121.852 28.84H124.66C125.248 28.84 125.77 28.744 126.226 28.552C126.694 28.36 127.09 28.084 127.414 27.724C127.738 27.364 127.984 26.932 128.152 26.428C128.32 25.912 128.404 25.336 128.404 24.7C128.404 24.064 128.32 23.494 128.152 22.99C127.984 22.474 127.732 22.036 127.396 21.676C127.072 21.316 126.682 21.04 126.226 20.848C125.77 20.656 125.248 20.56 124.66 20.56H121.798L122.032 20.254V29.182ZM132.919 31V21.514H135.097L135.133 24.538L134.827 23.854C134.959 23.374 135.187 22.942 135.511 22.558C135.835 22.174 136.207 21.874 136.627 21.658C137.059 21.43 137.509 21.316 137.977 21.316C138.181 21.316 138.373 21.334 138.553 21.37C138.745 21.406 138.901 21.448 139.021 21.496L138.427 23.926C138.295 23.854 138.133 23.794 137.941 23.746C137.749 23.698 137.557 23.674 137.365 23.674C137.065 23.674 136.777 23.734 136.501 23.854C136.237 23.962 136.003 24.118 135.799 24.322C135.595 24.526 135.433 24.766 135.313 25.042C135.205 25.306 135.151 25.606 135.151 25.942V31H132.919ZM138.942 31L143.856 18.4H146.052L150.93 31H148.5L145.8 23.836C145.74 23.692 145.656 23.464 145.548 23.152C145.452 22.84 145.344 22.504 145.224 22.144C145.104 21.772 144.996 21.43 144.9 21.118C144.804 20.794 144.732 20.56 144.684 20.416L145.134 20.398C145.062 20.638 144.978 20.908 144.882 21.208C144.786 21.508 144.684 21.82 144.576 22.144C144.468 22.468 144.36 22.78 144.252 23.08C144.156 23.38 144.066 23.65 143.982 23.89L141.282 31H138.942ZM141.174 28.12L141.984 26.086H147.726L148.59 28.12H141.174ZM151.511 31L156.425 18.4H158.621L163.499 31H161.069L158.369 23.836C158.309 23.692 158.225 23.464 158.117 23.152C158.021 22.84 157.913 22.504 157.793 22.144C157.673 21.772 157.565 21.43 157.469 21.118C157.373 20.794 157.301 20.56 157.253 20.416L157.703 20.398C157.631 20.638 157.547 20.908 157.451 21.208C157.355 21.508 157.253 21.82 157.145 22.144C157.037 22.468 156.929 22.78 156.821 23.08C156.725 23.38 156.635 23.65 156.551 23.89L153.851 31H151.511ZM153.743 28.12L154.553 26.086H160.295L161.159 28.12H153.743ZM173.294 31V20.56H169.694V18.4H179.342V20.56H175.634V31H173.294ZM180.169 31V21.514H182.347L182.383 24.538L182.077 23.854C182.209 23.374 182.437 22.942 182.761 22.558C183.085 22.174 183.457 21.874 183.877 21.658C184.309 21.43 184.759 21.316 185.227 21.316C185.431 21.316 185.623 21.334 185.803 21.37C185.995 21.406 186.151 21.448 186.271 21.496L185.677 23.926C185.545 23.854 185.383 23.794 185.191 23.746C184.999 23.698 184.807 23.674 184.615 23.674C184.315 23.674 184.027 23.734 183.751 23.854C183.487 23.962 183.253 24.118 183.049 24.322C182.845 24.526 182.683 24.766 182.563 25.042C182.455 25.306 182.401 25.606 182.401 25.942V31H180.169ZM190.923 31.18C190.143 31.18 189.435 30.964 188.799 30.532C188.163 30.1 187.653 29.512 187.269 28.768C186.885 28.024 186.693 27.178 186.693 26.23C186.693 25.282 186.885 24.436 187.269 23.692C187.653 22.948 188.175 22.366 188.835 21.946C189.495 21.526 190.239 21.316 191.067 21.316C191.547 21.316 191.985 21.388 192.381 21.532C192.777 21.664 193.125 21.856 193.425 22.108C193.725 22.36 193.971 22.648 194.163 22.972C194.367 23.296 194.505 23.644 194.577 24.016L194.091 23.89V21.514H196.323V31H194.073V28.732L194.595 28.642C194.511 28.966 194.355 29.284 194.127 29.596C193.911 29.896 193.635 30.166 193.299 30.406C192.975 30.634 192.609 30.82 192.201 30.964C191.805 31.108 191.379 31.18 190.923 31.18ZM191.535 29.218C192.051 29.218 192.507 29.092 192.903 28.84C193.299 28.588 193.605 28.24 193.821 27.796C194.049 27.34 194.163 26.818 194.163 26.23C194.163 25.654 194.049 25.144 193.821 24.7C193.605 24.256 193.299 23.908 192.903 23.656C192.507 23.404 192.051 23.278 191.535 23.278C191.019 23.278 190.563 23.404 190.167 23.656C189.783 23.908 189.483 24.256 189.267 24.7C189.051 25.144 188.943 25.654 188.943 26.23C188.943 26.818 189.051 27.34 189.267 27.796C189.483 28.24 189.783 28.588 190.167 28.84C190.563 29.092 191.019 29.218 191.535 29.218ZM199.142 31V21.514H201.356V31H199.142ZM200.222 19.498C199.778 19.498 199.43 19.39 199.178 19.174C198.938 18.946 198.818 18.628 198.818 18.22C198.818 17.836 198.944 17.524 199.196 17.284C199.448 17.044 199.79 16.924 200.222 16.924C200.678 16.924 201.026 17.038 201.266 17.266C201.518 17.482 201.644 17.8 201.644 18.22C201.644 18.592 201.518 18.898 201.266 19.138C201.014 19.378 200.666 19.498 200.222 19.498ZM204.163 31V21.514H206.323L206.359 23.458L205.945 23.674C206.065 23.242 206.299 22.852 206.647 22.504C206.995 22.144 207.409 21.856 207.889 21.64C208.369 21.424 208.861 21.316 209.365 21.316C210.085 21.316 210.685 21.46 211.165 21.748C211.657 22.036 212.023 22.468 212.263 23.044C212.515 23.62 212.641 24.34 212.641 25.204V31H210.427V25.366C210.427 24.886 210.361 24.49 210.229 24.178C210.097 23.854 209.893 23.62 209.617 23.476C209.341 23.32 209.005 23.248 208.609 23.26C208.285 23.26 207.985 23.314 207.709 23.422C207.445 23.518 207.211 23.662 207.007 23.854C206.815 24.034 206.659 24.244 206.539 24.484C206.431 24.724 206.377 24.988 206.377 25.276V31H205.279C205.063 31 204.859 31 204.667 31C204.487 31 204.319 31 204.163 31ZM215.384 31V21.514H217.598V31H215.384ZM216.464 19.498C216.02 19.498 215.672 19.39 215.42 19.174C215.18 18.946 215.06 18.628 215.06 18.22C215.06 17.836 215.186 17.524 215.438 17.284C215.69 17.044 216.032 16.924 216.464 16.924C216.92 16.924 217.268 17.038 217.508 17.266C217.76 17.482 217.886 17.8 217.886 18.22C217.886 18.592 217.76 18.898 217.508 19.138C217.256 19.378 216.908 19.498 216.464 19.498ZM220.405 31V21.514H222.565L222.601 23.458L222.187 23.674C222.307 23.242 222.541 22.852 222.889 22.504C223.237 22.144 223.651 21.856 224.131 21.64C224.611 21.424 225.103 21.316 225.607 21.316C226.327 21.316 226.927 21.46 227.407 21.748C227.899 22.036 228.265 22.468 228.505 23.044C228.757 23.62 228.883 24.34 228.883 25.204V31H226.669V25.366C226.669 24.886 226.603 24.49 226.471 24.178C226.339 23.854 226.135 23.62 225.859 23.476C225.583 23.32 225.247 23.248 224.851 23.26C224.527 23.26 224.227 23.314 223.951 23.422C223.687 23.518 223.453 23.662 223.249 23.854C223.057 24.034 222.901 24.244 222.781 24.484C222.673 24.724 222.619 24.988 222.619 25.276V31H221.521C221.305 31 221.101 31 220.909 31C220.729 31 220.561 31 220.405 31ZM235.64 35.14C234.932 35.14 234.224 35.032 233.516 34.816C232.82 34.6 232.256 34.318 231.824 33.97L232.616 32.332C232.868 32.512 233.15 32.668 233.462 32.8C233.774 32.932 234.104 33.034 234.452 33.106C234.812 33.178 235.166 33.214 235.514 33.214C236.15 33.214 236.678 33.112 237.098 32.908C237.53 32.716 237.854 32.416 238.07 32.008C238.286 31.612 238.394 31.114 238.394 30.514V28.768L238.718 28.894C238.646 29.266 238.448 29.62 238.124 29.956C237.8 30.292 237.392 30.568 236.9 30.784C236.408 30.988 235.904 31.09 235.388 31.09C234.488 31.09 233.69 30.88 232.994 30.46C232.31 30.04 231.764 29.47 231.356 28.75C230.96 28.018 230.762 27.178 230.762 26.23C230.762 25.282 230.96 24.442 231.356 23.71C231.752 22.966 232.292 22.384 232.976 21.964C233.672 21.532 234.452 21.316 235.316 21.316C235.676 21.316 236.024 21.358 236.36 21.442C236.696 21.526 237.002 21.646 237.278 21.802C237.566 21.958 237.824 22.132 238.052 22.324C238.28 22.516 238.466 22.72 238.61 22.936C238.754 23.152 238.844 23.362 238.88 23.566L238.412 23.71L238.448 21.514H240.626V30.352C240.626 31.12 240.512 31.798 240.284 32.386C240.056 32.974 239.726 33.472 239.294 33.88C238.862 34.3 238.34 34.612 237.728 34.816C237.116 35.032 236.42 35.14 235.64 35.14ZM235.73 29.2C236.27 29.2 236.744 29.074 237.152 28.822C237.572 28.57 237.896 28.222 238.124 27.778C238.352 27.334 238.466 26.824 238.466 26.248C238.466 25.66 238.346 25.144 238.106 24.7C237.878 24.244 237.56 23.89 237.152 23.638C236.744 23.386 236.27 23.26 235.73 23.26C235.19 23.26 234.716 23.392 234.308 23.656C233.9 23.908 233.576 24.262 233.336 24.718C233.108 25.162 232.994 25.672 232.994 26.248C232.994 26.812 233.108 27.322 233.336 27.778C233.576 28.222 233.9 28.57 234.308 28.822C234.716 29.074 235.19 29.2 235.73 29.2ZM257.568 31L256.056 29.416L255.48 28.84L252.546 25.6C252.186 25.216 251.856 24.838 251.556 24.466C251.268 24.082 251.022 23.716 250.818 23.368C250.626 23.02 250.47 22.684 250.35 22.36C250.242 22.036 250.188 21.73 250.188 21.442C250.188 20.818 250.35 20.26 250.674 19.768C250.998 19.276 251.448 18.892 252.024 18.616C252.6 18.328 253.266 18.184 254.022 18.184C254.586 18.184 255.114 18.286 255.606 18.49C256.098 18.682 256.518 18.958 256.866 19.318C257.226 19.666 257.484 20.08 257.64 20.56L255.93 21.622C255.714 21.082 255.456 20.704 255.156 20.488C254.856 20.26 254.49 20.146 254.058 20.146C253.722 20.146 253.44 20.2 253.212 20.308C252.984 20.404 252.81 20.554 252.69 20.758C252.57 20.95 252.51 21.19 252.51 21.478C252.51 21.73 252.594 22.018 252.762 22.342C252.93 22.666 253.134 22.996 253.374 23.332C253.626 23.668 253.884 23.98 254.148 24.268C254.412 24.556 254.64 24.808 254.832 25.024L256.938 27.346L257.712 28.12L260.376 31H257.568ZM252.816 31.18C251.94 31.18 251.142 31 250.422 30.64C249.702 30.268 249.132 29.776 248.712 29.164C248.292 28.552 248.082 27.88 248.082 27.148C248.082 26.224 248.34 25.414 248.856 24.718C249.372 24.022 250.134 23.488 251.142 23.116L252.528 24.628C251.796 24.796 251.244 25.066 250.872 25.438C250.512 25.798 250.332 26.284 250.332 26.896C250.332 27.364 250.446 27.778 250.674 28.138C250.902 28.486 251.226 28.762 251.646 28.966C252.066 29.158 252.57 29.254 253.158 29.254C253.674 29.254 254.148 29.152 254.58 28.948C255.024 28.744 255.42 28.456 255.768 28.084C256.116 27.7 256.404 27.244 256.632 26.716C256.86 26.188 257.016 25.606 257.1 24.97H259.134C259.038 25.714 258.858 26.404 258.594 27.04C258.342 27.676 258.024 28.252 257.64 28.768C257.268 29.272 256.836 29.704 256.344 30.064C255.852 30.424 255.312 30.7 254.724 30.892C254.136 31.084 253.5 31.18 252.816 31.18ZM125.038 54.18C124.126 54.18 123.292 54.024 122.536 53.712C121.78 53.4 121.126 52.956 120.574 52.38C120.022 51.792 119.59 51.102 119.278 50.31C118.978 49.506 118.828 48.63 118.828 47.682C118.828 46.77 118.99 45.924 119.314 45.144C119.638 44.364 120.088 43.68 120.664 43.092C121.24 42.504 121.912 42.048 122.68 41.724C123.448 41.4 124.282 41.238 125.182 41.238C125.794 41.238 126.388 41.328 126.964 41.508C127.54 41.688 128.068 41.94 128.548 42.264C129.028 42.576 129.43 42.942 129.754 43.362L128.26 45C127.948 44.676 127.624 44.406 127.288 44.19C126.964 43.962 126.622 43.794 126.262 43.686C125.914 43.566 125.554 43.506 125.182 43.506C124.63 43.506 124.108 43.608 123.616 43.812C123.136 44.016 122.716 44.304 122.356 44.676C122.008 45.048 121.732 45.492 121.528 46.008C121.324 46.512 121.222 47.076 121.222 47.7C121.222 48.336 121.318 48.912 121.51 49.428C121.714 49.944 121.996 50.388 122.356 50.76C122.728 51.132 123.166 51.42 123.67 51.624C124.186 51.816 124.75 51.912 125.362 51.912C125.758 51.912 126.142 51.858 126.514 51.75C126.886 51.642 127.228 51.492 127.54 51.3C127.864 51.096 128.158 50.862 128.422 50.598L129.574 52.452C129.286 52.776 128.902 53.07 128.422 53.334C127.942 53.598 127.402 53.808 126.802 53.964C126.214 54.108 125.626 54.18 125.038 54.18ZM135.939 54.18C134.991 54.18 134.145 53.97 133.401 53.55C132.657 53.118 132.069 52.53 131.637 51.786C131.205 51.042 130.989 50.196 130.989 49.248C130.989 48.3 131.205 47.454 131.637 46.71C132.069 45.966 132.657 45.384 133.401 44.964C134.145 44.532 134.991 44.316 135.939 44.316C136.875 44.316 137.715 44.532 138.459 44.964C139.203 45.384 139.785 45.966 140.205 46.71C140.637 47.454 140.853 48.3 140.853 49.248C140.853 50.196 140.637 51.042 140.205 51.786C139.785 52.53 139.203 53.118 138.459 53.55C137.715 53.97 136.875 54.18 135.939 54.18ZM135.939 52.218C136.455 52.218 136.911 52.086 137.307 51.822C137.715 51.558 138.033 51.204 138.261 50.76C138.501 50.316 138.615 49.812 138.603 49.248C138.615 48.672 138.501 48.162 138.261 47.718C138.033 47.274 137.715 46.926 137.307 46.674C136.911 46.41 136.455 46.278 135.939 46.278C135.423 46.278 134.955 46.41 134.535 46.674C134.127 46.926 133.809 47.28 133.581 47.736C133.353 48.18 133.239 48.684 133.239 49.248C133.239 49.812 133.353 50.316 133.581 50.76C133.809 51.204 134.127 51.558 134.535 51.822C134.955 52.086 135.423 52.218 135.939 52.218ZM142.833 54V44.514H144.993L145.029 46.458L144.615 46.674C144.735 46.242 144.969 45.852 145.317 45.504C145.665 45.144 146.079 44.856 146.559 44.64C147.039 44.424 147.531 44.316 148.035 44.316C148.755 44.316 149.355 44.46 149.835 44.748C150.327 45.036 150.693 45.468 150.933 46.044C151.185 46.62 151.311 47.34 151.311 48.204V54H149.097V48.366C149.097 47.886 149.031 47.49 148.899 47.178C148.767 46.854 148.563 46.62 148.287 46.476C148.011 46.32 147.675 46.248 147.279 46.26C146.955 46.26 146.655 46.314 146.379 46.422C146.115 46.518 145.881 46.662 145.677 46.854C145.485 47.034 145.329 47.244 145.209 47.484C145.101 47.724 145.047 47.988 145.047 48.276V54H143.949C143.733 54 143.529 54 143.337 54C143.157 54 142.989 54 142.833 54ZM156.97 54.18C156.13 54.18 155.374 54.042 154.702 53.766C154.042 53.478 153.502 53.07 153.082 52.542L154.522 51.3C154.882 51.708 155.284 52.002 155.728 52.182C156.172 52.362 156.64 52.452 157.132 52.452C157.336 52.452 157.516 52.428 157.672 52.38C157.84 52.332 157.984 52.26 158.104 52.164C158.224 52.068 158.314 51.96 158.374 51.84C158.446 51.708 158.482 51.564 158.482 51.408C158.482 51.12 158.374 50.892 158.158 50.724C158.038 50.64 157.846 50.55 157.582 50.454C157.33 50.358 157 50.262 156.592 50.166C155.944 49.998 155.404 49.806 154.972 49.59C154.54 49.362 154.204 49.11 153.964 48.834C153.76 48.606 153.604 48.348 153.496 48.06C153.4 47.772 153.352 47.46 153.352 47.124C153.352 46.704 153.442 46.326 153.622 45.99C153.814 45.642 154.072 45.342 154.396 45.09C154.72 44.838 155.098 44.646 155.53 44.514C155.962 44.382 156.412 44.316 156.88 44.316C157.36 44.316 157.822 44.376 158.266 44.496C158.722 44.616 159.142 44.79 159.526 45.018C159.922 45.234 160.258 45.498 160.534 45.81L159.31 47.16C159.082 46.944 158.83 46.752 158.554 46.584C158.29 46.416 158.02 46.284 157.744 46.188C157.468 46.08 157.21 46.026 156.97 46.026C156.742 46.026 156.538 46.05 156.358 46.098C156.178 46.134 156.028 46.194 155.908 46.278C155.788 46.362 155.692 46.47 155.62 46.602C155.56 46.722 155.53 46.866 155.53 47.034C155.542 47.178 155.578 47.316 155.638 47.448C155.71 47.568 155.806 47.67 155.926 47.754C156.058 47.838 156.256 47.934 156.52 48.042C156.784 48.15 157.126 48.252 157.546 48.348C158.134 48.504 158.626 48.678 159.022 48.87C159.418 49.062 159.73 49.284 159.958 49.536C160.186 49.752 160.348 50.004 160.444 50.292C160.54 50.58 160.588 50.898 160.588 51.246C160.588 51.81 160.426 52.314 160.102 52.758C159.79 53.202 159.358 53.55 158.806 53.802C158.266 54.054 157.654 54.18 156.97 54.18ZM165.832 54.18C165.148 54.18 164.554 54.03 164.05 53.73C163.546 53.418 163.162 52.98 162.898 52.416C162.634 51.84 162.502 51.156 162.502 50.364V44.514H164.716V49.896C164.716 50.4 164.794 50.832 164.95 51.192C165.106 51.54 165.334 51.81 165.634 52.002C165.934 52.194 166.294 52.29 166.714 52.29C167.026 52.29 167.308 52.242 167.56 52.146C167.824 52.038 168.052 51.894 168.244 51.714C168.436 51.522 168.586 51.3 168.694 51.048C168.802 50.784 168.856 50.502 168.856 50.202V44.514H171.07V54H168.91L168.874 52.02L169.27 51.804C169.126 52.26 168.88 52.668 168.532 53.028C168.196 53.376 167.794 53.658 167.326 53.874C166.858 54.078 166.36 54.18 165.832 54.18ZM173.683 54V40.68H175.915V54H173.683ZM179.49 54V42.102H181.704V54H179.49ZM177.618 46.566V44.514H183.774V46.566H177.618ZM188.954 54.18C188.174 54.18 187.466 53.964 186.83 53.532C186.194 53.1 185.684 52.512 185.3 51.768C184.916 51.024 184.724 50.178 184.724 49.23C184.724 48.282 184.916 47.436 185.3 46.692C185.684 45.948 186.206 45.366 186.866 44.946C187.526 44.526 188.27 44.316 189.098 44.316C189.578 44.316 190.016 44.388 190.412 44.532C190.808 44.664 191.156 44.856 191.456 45.108C191.756 45.36 192.002 45.648 192.194 45.972C192.398 46.296 192.536 46.644 192.608 47.016L192.122 46.89V44.514H194.354V54H192.104V51.732L192.626 51.642C192.542 51.966 192.386 52.284 192.158 52.596C191.942 52.896 191.666 53.166 191.33 53.406C191.006 53.634 190.64 53.82 190.232 53.964C189.836 54.108 189.41 54.18 188.954 54.18ZM189.566 52.218C190.082 52.218 190.538 52.092 190.934 51.84C191.33 51.588 191.636 51.24 191.852 50.796C192.08 50.34 192.194 49.818 192.194 49.23C192.194 48.654 192.08 48.144 191.852 47.7C191.636 47.256 191.33 46.908 190.934 46.656C190.538 46.404 190.082 46.278 189.566 46.278C189.05 46.278 188.594 46.404 188.198 46.656C187.814 46.908 187.514 47.256 187.298 47.7C187.082 48.144 186.974 48.654 186.974 49.23C186.974 49.818 187.082 50.34 187.298 50.796C187.514 51.24 187.814 51.588 188.198 51.84C188.594 52.092 189.05 52.218 189.566 52.218ZM196.921 54V44.514H199.081L199.117 46.458L198.703 46.674C198.823 46.242 199.057 45.852 199.405 45.504C199.753 45.144 200.167 44.856 200.647 44.64C201.127 44.424 201.619 44.316 202.123 44.316C202.843 44.316 203.443 44.46 203.923 44.748C204.415 45.036 204.781 45.468 205.021 46.044C205.273 46.62 205.399 47.34 205.399 48.204V54H203.185V48.366C203.185 47.886 203.119 47.49 202.987 47.178C202.855 46.854 202.651 46.62 202.375 46.476C202.099 46.32 201.763 46.248 201.367 46.26C201.043 46.26 200.743 46.314 200.467 46.422C200.203 46.518 199.969 46.662 199.765 46.854C199.573 47.034 199.417 47.244 199.297 47.484C199.189 47.724 199.135 47.988 199.135 48.276V54H198.037C197.821 54 197.617 54 197.425 54C197.245 54 197.077 54 196.921 54ZM211.958 54.18C211.07 54.18 210.272 53.964 209.564 53.532C208.856 53.1 208.298 52.512 207.89 51.768C207.482 51.024 207.278 50.184 207.278 49.248C207.278 48.312 207.482 47.472 207.89 46.728C208.298 45.984 208.856 45.396 209.564 44.964C210.272 44.532 211.07 44.316 211.958 44.316C212.81 44.316 213.584 44.478 214.28 44.802C214.976 45.126 215.516 45.576 215.9 46.152L214.676 47.628C214.496 47.376 214.268 47.148 213.992 46.944C213.716 46.74 213.422 46.578 213.11 46.458C212.798 46.338 212.486 46.278 212.174 46.278C211.646 46.278 211.172 46.41 210.752 46.674C210.344 46.926 210.02 47.28 209.78 47.736C209.54 48.18 209.42 48.684 209.42 49.248C209.42 49.812 209.54 50.316 209.78 50.76C210.032 51.204 210.368 51.558 210.788 51.822C211.208 52.086 211.676 52.218 212.192 52.218C212.504 52.218 212.804 52.17 213.092 52.074C213.392 51.966 213.674 51.816 213.938 51.624C214.202 51.432 214.448 51.192 214.676 50.904L215.9 52.398C215.492 52.926 214.928 53.358 214.208 53.694C213.5 54.018 212.75 54.18 211.958 54.18ZM218.769 58.14L220.785 53.478L220.803 54.954L216.123 44.514H218.679L221.289 50.706C221.373 50.862 221.457 51.072 221.541 51.336C221.625 51.588 221.697 51.84 221.757 52.092L221.307 52.236C221.391 52.008 221.481 51.768 221.577 51.516C221.673 51.252 221.763 50.982 221.847 50.706L224.079 44.514H226.653L222.693 54L221.073 58.14H218.769Z" fill="black"/>
<path d="M120.268 74.99L120.226 73.688L125.77 68.2H127.24L120.268 74.99ZM119.442 78V68.2H120.534V78H119.442ZM126.008 78L122.074 72.764L122.872 72.064L127.38 78H126.008ZM128.842 78V70.692H129.878L129.92 72.218L129.752 72.288C129.845 71.9707 130.027 71.6813 130.298 71.42C130.568 71.1587 130.89 70.9487 131.264 70.79C131.646 70.622 132.038 70.538 132.44 70.538C132.981 70.538 133.434 70.6453 133.798 70.86C134.162 71.0747 134.437 71.406 134.624 71.854C134.81 72.302 134.904 72.8713 134.904 73.562V78H133.84V73.618C133.84 73.1327 133.774 72.736 133.644 72.428C133.522 72.1107 133.331 71.8773 133.07 71.728C132.808 71.5787 132.486 71.5087 132.104 71.518C131.786 71.518 131.492 71.574 131.222 71.686C130.951 71.7887 130.718 71.9333 130.522 72.12C130.326 72.3067 130.172 72.5213 130.06 72.764C129.948 73.0067 129.892 73.268 129.892 73.548V78H129.374C129.308 78 129.234 78 129.15 78C129.066 78 128.963 78 128.842 78ZM140.282 78.14C139.554 78.14 138.905 77.9767 138.336 77.65C137.776 77.3233 137.333 76.8707 137.006 76.292C136.689 75.7133 136.53 75.0553 136.53 74.318C136.53 73.59 136.689 72.9413 137.006 72.372C137.333 71.8027 137.776 71.3547 138.336 71.028C138.905 70.7013 139.554 70.538 140.282 70.538C141.001 70.538 141.64 70.7013 142.2 71.028C142.769 71.3547 143.213 71.8027 143.53 72.372C143.857 72.9413 144.02 73.59 144.02 74.318C144.02 75.0553 143.857 75.7133 143.53 76.292C143.213 76.8707 142.769 77.3233 142.2 77.65C141.64 77.9767 141.001 78.14 140.282 78.14ZM140.282 77.146C140.795 77.146 141.253 77.0247 141.654 76.782C142.055 76.53 142.368 76.194 142.592 75.774C142.816 75.3447 142.928 74.8593 142.928 74.318C142.928 73.7767 142.816 73.296 142.592 72.876C142.368 72.456 142.055 72.1293 141.654 71.896C141.253 71.6533 140.795 71.532 140.282 71.532C139.769 71.532 139.307 71.6533 138.896 71.896C138.495 72.1293 138.177 72.4607 137.944 72.89C137.72 73.31 137.613 73.786 137.622 74.318C137.613 74.8593 137.72 75.3447 137.944 75.774C138.177 76.194 138.495 76.53 138.896 76.782C139.307 77.0247 139.769 77.146 140.282 77.146ZM147.141 78L144.607 70.692L145.727 70.678L147.701 76.628L147.351 76.6L149.493 71.812H150.123L152.279 76.6L151.859 76.628L153.875 70.692H154.981L152.447 78H151.831L149.563 72.792L149.983 72.82L147.785 78H147.141ZM156.387 78V67.64H157.437V78H156.387ZM162.727 78.14C161.999 78.14 161.35 77.9813 160.781 77.664C160.221 77.3467 159.782 76.9033 159.465 76.334C159.148 75.7647 158.989 75.1113 158.989 74.374C158.989 73.8047 159.078 73.2913 159.255 72.834C159.432 72.3673 159.68 71.9613 159.997 71.616C160.324 71.2707 160.711 71.0047 161.159 70.818C161.607 70.622 162.092 70.524 162.615 70.524C163.11 70.524 163.558 70.6127 163.959 70.79C164.37 70.9673 164.72 71.2147 165.009 71.532C165.308 71.84 165.532 72.2087 165.681 72.638C165.83 73.0673 165.896 73.5387 165.877 74.052L165.863 74.542H159.773L159.619 73.66H165.065L164.813 73.898V73.562C164.794 73.226 164.696 72.904 164.519 72.596C164.342 72.2787 164.09 72.022 163.763 71.826C163.446 71.63 163.063 71.532 162.615 71.532C162.092 71.532 161.64 71.6393 161.257 71.854C160.874 72.0593 160.58 72.3673 160.375 72.778C160.17 73.1887 160.067 73.6973 160.067 74.304C160.067 74.8827 160.179 75.3867 160.403 75.816C160.627 76.236 160.944 76.5627 161.355 76.796C161.775 77.0293 162.279 77.146 162.867 77.146C163.212 77.146 163.553 77.09 163.889 76.978C164.234 76.8567 164.612 76.6233 165.023 76.278L165.569 77.034C165.354 77.2487 165.098 77.44 164.799 77.608C164.5 77.7667 164.174 77.8973 163.819 78C163.464 78.0933 163.1 78.14 162.727 78.14ZM170.476 78.14C169.814 78.14 169.216 77.9767 168.684 77.65C168.162 77.3233 167.746 76.8753 167.438 76.306C167.14 75.7273 166.99 75.074 166.99 74.346C166.99 73.6087 167.144 72.9553 167.452 72.386C167.76 71.8073 168.176 71.3547 168.698 71.028C169.221 70.7013 169.809 70.538 170.462 70.538C170.826 70.538 171.176 70.594 171.512 70.706C171.858 70.818 172.166 70.9767 172.436 71.182C172.707 71.378 172.931 71.6067 173.108 71.868C173.286 72.12 173.393 72.386 173.43 72.666L173.108 72.554V67.64H174.158V78H173.122L173.094 76.18L173.36 76.082C173.323 76.3433 173.216 76.6 173.038 76.852C172.87 77.0947 172.656 77.314 172.394 77.51C172.133 77.706 171.834 77.86 171.498 77.972C171.172 78.084 170.831 78.14 170.476 78.14ZM170.63 77.174C171.116 77.174 171.55 77.0527 171.932 76.81C172.315 76.5673 172.614 76.2313 172.828 75.802C173.052 75.3727 173.164 74.8827 173.164 74.332C173.164 73.7813 173.052 73.296 172.828 72.876C172.614 72.4467 172.315 72.1107 171.932 71.868C171.55 71.616 171.116 71.49 170.63 71.49C170.126 71.49 169.683 71.616 169.3 71.868C168.927 72.1107 168.628 72.4467 168.404 72.876C168.19 73.296 168.082 73.7813 168.082 74.332C168.082 74.8733 168.19 75.3587 168.404 75.788C168.619 76.2173 168.918 76.558 169.3 76.81C169.683 77.0527 170.126 77.174 170.63 77.174ZM179.494 81.22C178.952 81.22 178.439 81.136 177.954 80.968C177.468 80.8 177.067 80.59 176.75 80.338L177.17 79.456C177.356 79.6053 177.571 79.736 177.814 79.848C178.066 79.9693 178.336 80.0627 178.626 80.128C178.915 80.2027 179.209 80.24 179.508 80.24C180.049 80.24 180.506 80.1373 180.88 79.932C181.262 79.736 181.552 79.442 181.748 79.05C181.953 78.658 182.056 78.1727 182.056 77.594V76.194L182.224 76.152C182.14 76.5067 181.958 76.838 181.678 77.146C181.398 77.4447 181.057 77.6873 180.656 77.874C180.254 78.0513 179.83 78.14 179.382 78.14C178.7 78.14 178.089 77.9767 177.548 77.65C177.016 77.3233 176.596 76.8753 176.288 76.306C175.98 75.7273 175.826 75.074 175.826 74.346C175.826 73.6087 175.98 72.9553 176.288 72.386C176.605 71.8073 177.03 71.3547 177.562 71.028C178.094 70.7013 178.691 70.538 179.354 70.538C179.643 70.538 179.923 70.5753 180.194 70.65C180.464 70.7153 180.712 70.8133 180.936 70.944C181.169 71.0747 181.379 71.224 181.566 71.392C181.752 71.56 181.906 71.742 182.028 71.938C182.158 72.134 182.252 72.3347 182.308 72.54L182.014 72.498L182.056 70.692H183.106V77.552C183.106 78.14 183.022 78.658 182.854 79.106C182.686 79.5633 182.438 79.946 182.112 80.254C181.794 80.5713 181.412 80.8093 180.964 80.968C180.525 81.136 180.035 81.22 179.494 81.22ZM179.508 77.132C180.002 77.132 180.441 77.0153 180.824 76.782C181.216 76.5393 181.524 76.208 181.748 75.788C181.972 75.368 182.084 74.8827 182.084 74.332C182.084 73.7907 181.972 73.31 181.748 72.89C181.533 72.47 181.23 72.1387 180.838 71.896C180.446 71.6533 180.002 71.532 179.508 71.532C179.004 71.532 178.556 71.6533 178.164 71.896C177.781 72.1387 177.478 72.47 177.254 72.89C177.03 73.31 176.918 73.7907 176.918 74.332C176.918 74.864 177.025 75.3447 177.24 75.774C177.464 76.194 177.767 76.5253 178.15 76.768C178.542 77.0107 178.994 77.132 179.508 77.132ZM188.508 78.14C187.78 78.14 187.132 77.9813 186.562 77.664C186.002 77.3467 185.564 76.9033 185.246 76.334C184.929 75.7647 184.77 75.1113 184.77 74.374C184.77 73.8047 184.859 73.2913 185.036 72.834C185.214 72.3673 185.461 71.9613 185.778 71.616C186.105 71.2707 186.492 71.0047 186.94 70.818C187.388 70.622 187.874 70.524 188.396 70.524C188.891 70.524 189.339 70.6127 189.74 70.79C190.151 70.9673 190.501 71.2147 190.79 71.532C191.089 71.84 191.313 72.2087 191.462 72.638C191.612 73.0673 191.677 73.5387 191.658 74.052L191.644 74.542H185.554L185.4 73.66H190.846L190.594 73.898V73.562C190.576 73.226 190.478 72.904 190.3 72.596C190.123 72.2787 189.871 72.022 189.544 71.826C189.227 71.63 188.844 71.532 188.396 71.532C187.874 71.532 187.421 71.6393 187.038 71.854C186.656 72.0593 186.362 72.3673 186.156 72.778C185.951 73.1887 185.848 73.6973 185.848 74.304C185.848 74.8827 185.96 75.3867 186.184 75.816C186.408 76.236 186.726 76.5627 187.136 76.796C187.556 77.0293 188.06 77.146 188.648 77.146C188.994 77.146 189.334 77.09 189.67 76.978C190.016 76.8567 190.394 76.6233 190.804 76.278L191.35 77.034C191.136 77.2487 190.879 77.44 190.58 77.608C190.282 77.7667 189.955 77.8973 189.6 78C189.246 78.0933 188.882 78.14 188.508 78.14ZM198.976 75.072C198.76 75.072 198.556 75.016 198.364 74.904C198.18 74.792 198.032 74.644 197.92 74.46C197.808 74.276 197.752 74.072 197.752 73.848C197.752 73.616 197.808 73.408 197.92 73.224C198.032 73.032 198.18 72.88 198.364 72.768C198.548 72.656 198.752 72.6 198.976 72.6C199.208 72.6 199.42 72.656 199.612 72.768C199.804 72.88 199.956 73.032 200.068 73.224C200.18 73.408 200.236 73.616 200.236 73.848C200.236 74.072 200.18 74.276 200.068 74.46C199.956 74.644 199.804 74.792 199.612 74.904C199.42 75.016 199.208 75.072 198.976 75.072ZM206.817 78V76.964H208.399V69.236H206.817V68.2H211.073V69.236H209.491V76.964H211.073V78H206.817ZM213.219 78V70.692H214.255L214.297 72.218L214.129 72.288C214.223 71.9707 214.405 71.6813 214.675 71.42C214.946 71.1587 215.268 70.9487 215.641 70.79C216.024 70.622 216.416 70.538 216.817 70.538C217.359 70.538 217.811 70.6453 218.175 70.86C218.539 71.0747 218.815 71.406 219.001 71.854C219.188 72.302 219.281 72.8713 219.281 73.562V78H218.217V73.618C218.217 73.1327 218.152 72.736 218.021 72.428C217.9 72.1107 217.709 71.8773 217.447 71.728C217.186 71.5787 216.864 71.5087 216.481 71.518C216.164 71.518 215.87 71.574 215.599 71.686C215.329 71.7887 215.095 71.9333 214.899 72.12C214.703 72.3067 214.549 72.5213 214.437 72.764C214.325 73.0067 214.269 73.268 214.269 73.548V78H213.751C213.686 78 213.611 78 213.527 78C213.443 78 213.341 78 213.219 78ZM223.82 78.14C223.194 78.14 222.634 78.0233 222.14 77.79C221.645 77.5567 221.253 77.2487 220.964 76.866L221.706 76.222C221.976 76.5487 222.294 76.796 222.658 76.964C223.031 77.132 223.446 77.216 223.904 77.216C224.137 77.216 224.347 77.1927 224.534 77.146C224.72 77.09 224.884 77.0107 225.024 76.908C225.164 76.8053 225.271 76.684 225.346 76.544C225.42 76.404 225.458 76.25 225.458 76.082C225.458 75.774 225.322 75.5173 225.052 75.312C224.93 75.228 224.758 75.144 224.534 75.06C224.31 74.9667 224.039 74.878 223.722 74.794C223.199 74.6447 222.765 74.4953 222.42 74.346C222.074 74.1873 221.804 74.0053 221.608 73.8C221.468 73.632 221.36 73.45 221.286 73.254C221.22 73.058 221.188 72.8433 221.188 72.61C221.188 72.3113 221.248 72.036 221.37 71.784C221.5 71.532 221.678 71.3127 221.902 71.126C222.135 70.93 222.406 70.7853 222.714 70.692C223.031 70.5893 223.372 70.538 223.736 70.538C224.081 70.538 224.422 70.5847 224.758 70.678C225.094 70.7713 225.406 70.9067 225.696 71.084C225.985 71.2613 226.232 71.4713 226.438 71.714L225.794 72.414C225.616 72.2273 225.42 72.0593 225.206 71.91C224.991 71.7607 224.762 71.644 224.52 71.56C224.286 71.476 224.044 71.434 223.792 71.434C223.568 71.434 223.358 71.462 223.162 71.518C222.975 71.574 222.812 71.6533 222.672 71.756C222.541 71.8493 222.438 71.966 222.364 72.106C222.298 72.246 222.266 72.4 222.266 72.568C222.266 72.708 222.294 72.834 222.35 72.946C222.406 73.058 222.485 73.156 222.588 73.24C222.718 73.3427 222.9 73.4407 223.134 73.534C223.376 73.618 223.675 73.7067 224.03 73.8C224.44 73.912 224.786 74.0287 225.066 74.15C225.355 74.262 225.593 74.3973 225.78 74.556C226.032 74.7427 226.209 74.9573 226.312 75.2C226.424 75.4427 226.48 75.718 226.48 76.026C226.48 76.4367 226.363 76.8007 226.13 77.118C225.906 77.4353 225.593 77.6873 225.192 77.874C224.79 78.0513 224.333 78.14 223.82 78.14ZM228.265 81.08V70.692H229.315L229.343 72.47L229.147 72.498C229.231 72.1433 229.413 71.8213 229.693 71.532C229.973 71.2333 230.314 70.9953 230.715 70.818C231.116 70.6407 231.541 70.552 231.989 70.552C232.642 70.552 233.226 70.7153 233.739 71.042C234.262 71.3687 234.677 71.8167 234.985 72.386C235.293 72.9553 235.447 73.6087 235.447 74.346C235.447 75.074 235.298 75.7227 234.999 76.292C234.7 76.8613 234.29 77.314 233.767 77.65C233.244 77.9767 232.656 78.14 232.003 78.14C231.546 78.14 231.112 78.0467 230.701 77.86C230.29 77.6733 229.94 77.4307 229.651 77.132C229.362 76.824 229.17 76.4927 229.077 76.138H229.329V81.08H228.265ZM231.835 77.132C232.33 77.132 232.768 77.0107 233.151 76.768C233.534 76.5253 233.837 76.194 234.061 75.774C234.285 75.354 234.397 74.878 234.397 74.346C234.397 73.8047 234.285 73.324 234.061 72.904C233.837 72.484 233.534 72.1527 233.151 71.91C232.768 71.6673 232.33 71.546 231.835 71.546C231.34 71.546 230.897 71.6673 230.505 71.91C230.122 72.1433 229.819 72.47 229.595 72.89C229.371 73.31 229.259 73.7907 229.259 74.332C229.259 74.8733 229.371 75.354 229.595 75.774C229.819 76.194 230.122 76.5253 230.505 76.768C230.897 77.0107 231.34 77.132 231.835 77.132ZM237.394 78V70.692H238.444V78H237.394ZM237.912 69.11C237.651 69.11 237.45 69.0447 237.31 68.914C237.179 68.774 237.114 68.5873 237.114 68.354C237.114 68.1207 237.184 67.934 237.324 67.794C237.464 67.654 237.66 67.584 237.912 67.584C238.164 67.584 238.36 67.654 238.5 67.794C238.64 67.9247 238.71 68.1113 238.71 68.354C238.71 68.578 238.64 68.76 238.5 68.9C238.36 69.04 238.164 69.11 237.912 69.11ZM240.877 78V70.692H241.927L241.955 72.638L241.843 72.372C241.946 72.0453 242.109 71.742 242.333 71.462C242.566 71.182 242.842 70.958 243.159 70.79C243.476 70.622 243.826 70.538 244.209 70.538C244.368 70.538 244.517 70.552 244.657 70.58C244.797 70.5987 244.914 70.6267 245.007 70.664L244.713 71.84C244.592 71.784 244.466 71.7467 244.335 71.728C244.214 71.7 244.097 71.686 243.985 71.686C243.668 71.686 243.383 71.742 243.131 71.854C242.879 71.966 242.664 72.1247 242.487 72.33C242.31 72.526 242.174 72.7547 242.081 73.016C241.988 73.2773 241.941 73.5573 241.941 73.856V78H240.877ZM249.145 78.14C248.417 78.14 247.769 77.9813 247.199 77.664C246.639 77.3467 246.201 76.9033 245.883 76.334C245.566 75.7647 245.407 75.1113 245.407 74.374C245.407 73.8047 245.496 73.2913 245.673 72.834C245.851 72.3673 246.098 71.9613 246.415 71.616C246.742 71.2707 247.129 71.0047 247.577 70.818C248.025 70.622 248.511 70.524 249.033 70.524C249.528 70.524 249.976 70.6127 250.377 70.79C250.788 70.9673 251.138 71.2147 251.427 71.532C251.726 71.84 251.95 72.2087 252.099 72.638C252.249 73.0673 252.314 73.5387 252.295 74.052L252.281 74.542H246.191L246.037 73.66H251.483L251.231 73.898V73.562C251.213 73.226 251.115 72.904 250.937 72.596C250.76 72.2787 250.508 72.022 250.181 71.826C249.864 71.63 249.481 71.532 249.033 71.532C248.511 71.532 248.058 71.6393 247.675 71.854C247.293 72.0593 246.999 72.3673 246.793 72.778C246.588 73.1887 246.485 73.6973 246.485 74.304C246.485 74.8827 246.597 75.3867 246.821 75.816C247.045 76.236 247.363 76.5627 247.773 76.796C248.193 77.0293 248.697 77.146 249.285 77.146C249.631 77.146 249.971 77.09 250.307 76.978C250.653 76.8567 251.031 76.6233 251.441 76.278L251.987 77.034C251.773 77.2487 251.516 77.44 251.217 77.608C250.919 77.7667 250.592 77.8973 250.237 78C249.883 78.0933 249.519 78.14 249.145 78.14ZM259.613 75.072C259.397 75.072 259.193 75.016 259.001 74.904C258.817 74.792 258.669 74.644 258.557 74.46C258.445 74.276 258.389 74.072 258.389 73.848C258.389 73.616 258.445 73.408 258.557 73.224C258.669 73.032 258.817 72.88 259.001 72.768C259.185 72.656 259.389 72.6 259.613 72.6C259.845 72.6 260.057 72.656 260.249 72.768C260.441 72.88 260.593 73.032 260.705 73.224C260.817 73.408 260.873 73.616 260.873 73.848C260.873 74.072 260.817 74.276 260.705 74.46C260.593 74.644 260.441 74.792 260.249 74.904C260.057 75.016 259.845 75.072 259.613 75.072ZM267.454 78V76.964H269.036V69.236H267.454V68.2H271.71V69.236H270.128V76.964H271.71V78H267.454ZM273.842 78V70.692H274.892L274.92 72.358L274.71 72.428C274.785 72.148 274.906 71.896 275.074 71.672C275.252 71.4387 275.462 71.238 275.704 71.07C275.947 70.902 276.213 70.776 276.502 70.692C276.792 70.5987 277.095 70.552 277.412 70.552C277.795 70.552 278.136 70.6173 278.434 70.748C278.742 70.8693 278.999 71.084 279.204 71.392C279.419 71.6907 279.582 72.0873 279.694 72.582L279.442 72.456L279.54 72.218C279.634 72.0033 279.769 71.798 279.946 71.602C280.133 71.3967 280.343 71.2147 280.576 71.056C280.819 70.8973 281.08 70.776 281.36 70.692C281.65 70.5987 281.944 70.552 282.242 70.552C282.756 70.552 283.19 70.664 283.544 70.888C283.899 71.1027 284.165 71.434 284.342 71.882C284.529 72.33 284.622 72.8993 284.622 73.59V78H283.544V73.646C283.544 73.1607 283.484 72.764 283.362 72.456C283.241 72.148 283.059 71.9193 282.816 71.77C282.583 71.6113 282.284 71.532 281.92 71.532C281.603 71.532 281.309 71.588 281.038 71.7C280.777 71.8027 280.548 71.952 280.352 72.148C280.166 72.3347 280.016 72.5493 279.904 72.792C279.802 73.0347 279.75 73.296 279.75 73.576V78H278.686V73.632C278.686 73.1653 278.621 72.778 278.49 72.47C278.369 72.162 278.187 71.9287 277.944 71.77C277.702 71.6113 277.403 71.532 277.048 71.532C276.74 71.532 276.456 71.588 276.194 71.7C275.933 71.8027 275.704 71.9473 275.508 72.134C275.322 72.3207 275.172 72.5353 275.06 72.778C274.958 73.0207 274.906 73.282 274.906 73.562V78H273.842ZM286.752 81.08V70.692H287.802L287.83 72.47L287.634 72.498C287.718 72.1433 287.9 71.8213 288.18 71.532C288.46 71.2333 288.801 70.9953 289.202 70.818C289.603 70.6407 290.028 70.552 290.476 70.552C291.129 70.552 291.713 70.7153 292.226 71.042C292.749 71.3687 293.164 71.8167 293.472 72.386C293.78 72.9553 293.934 73.6087 293.934 74.346C293.934 75.074 293.785 75.7227 293.486 76.292C293.187 76.8613 292.777 77.314 292.254 77.65C291.731 77.9767 291.143 78.14 290.49 78.14C290.033 78.14 289.599 78.0467 289.188 77.86C288.777 77.6733 288.427 77.4307 288.138 77.132C287.849 76.824 287.657 76.4927 287.564 76.138H287.816V81.08H286.752ZM290.322 77.132C290.817 77.132 291.255 77.0107 291.638 76.768C292.021 76.5253 292.324 76.194 292.548 75.774C292.772 75.354 292.884 74.878 292.884 74.346C292.884 73.8047 292.772 73.324 292.548 72.904C292.324 72.484 292.021 72.1527 291.638 71.91C291.255 71.6673 290.817 71.546 290.322 71.546C289.827 71.546 289.384 71.6673 288.992 71.91C288.609 72.1433 288.306 72.47 288.082 72.89C287.858 73.31 287.746 73.7907 287.746 74.332C287.746 74.8733 287.858 75.354 288.082 75.774C288.306 76.194 288.609 76.5253 288.992 76.768C289.384 77.0107 289.827 77.132 290.322 77.132ZM298.457 78.14C297.822 78.14 297.248 77.9767 296.735 77.65C296.222 77.314 295.816 76.8613 295.517 76.292C295.218 75.7133 295.069 75.06 295.069 74.332C295.069 73.5947 295.223 72.9413 295.531 72.372C295.839 71.8027 296.25 71.3547 296.763 71.028C297.286 70.7013 297.869 70.538 298.513 70.538C298.896 70.538 299.25 70.594 299.577 70.706C299.904 70.818 300.193 70.9767 300.445 71.182C300.706 71.378 300.921 71.6113 301.089 71.882C301.266 72.1433 301.388 72.428 301.453 72.736L301.145 72.582L301.187 70.692H302.237V78H301.173V76.208L301.453 76.026C301.388 76.306 301.262 76.5767 301.075 76.838C300.888 77.09 300.66 77.314 300.389 77.51C300.128 77.706 299.829 77.86 299.493 77.972C299.166 78.084 298.821 78.14 298.457 78.14ZM298.695 77.132C299.18 77.132 299.614 77.0153 299.997 76.782C300.38 76.5393 300.678 76.208 300.893 75.788C301.117 75.3587 301.229 74.8733 301.229 74.332C301.229 73.7907 301.117 73.31 300.893 72.89C300.678 72.47 300.38 72.1387 299.997 71.896C299.614 71.6533 299.18 71.532 298.695 71.532C298.2 71.532 297.762 71.6533 297.379 71.896C297.006 72.1387 296.707 72.47 296.483 72.89C296.268 73.31 296.161 73.7907 296.161 74.332C296.161 74.864 296.268 75.3447 296.483 75.774C296.698 76.194 296.996 76.5253 297.379 76.768C297.762 77.0107 298.2 77.132 298.695 77.132ZM307.503 78.14C306.812 78.14 306.196 77.9767 305.655 77.65C305.113 77.314 304.684 76.8613 304.367 76.292C304.059 75.7133 303.905 75.06 303.905 74.332C303.905 73.604 304.059 72.9553 304.367 72.386C304.684 71.8073 305.113 71.3547 305.655 71.028C306.196 70.7013 306.817 70.538 307.517 70.538C308.142 70.538 308.711 70.664 309.225 70.916C309.738 71.1587 310.149 71.4993 310.457 71.938L309.841 72.694C309.663 72.4607 309.449 72.2553 309.197 72.078C308.954 71.9007 308.688 71.7653 308.399 71.672C308.119 71.5693 307.839 71.518 307.559 71.518C307.064 71.518 306.621 71.644 306.229 71.896C305.837 72.1387 305.524 72.47 305.291 72.89C305.067 73.31 304.955 73.7907 304.955 74.332C304.955 74.8733 305.067 75.3587 305.291 75.788C305.524 76.208 305.837 76.5393 306.229 76.782C306.621 77.0247 307.059 77.146 307.545 77.146C307.825 77.146 308.1 77.104 308.371 77.02C308.641 76.9267 308.898 76.796 309.141 76.628C309.383 76.46 309.607 76.25 309.813 75.998L310.429 76.754C310.111 77.174 309.687 77.51 309.155 77.762C308.623 78.014 308.072 78.14 307.503 78.14ZM312.94 78V68.774H313.99V78H312.94ZM311.288 71.7V70.692H315.838V71.7H311.288Z" fill="black"/>
</svg>
